<svg width="1000" height="1000" viewBox="0 0 1000 1000" xmlns="http://www.w3.org/2000/svg" fill="none">

  <!-- ☀️ Matahari ceria -->
  <g transform="translate(150, 150)">
    <circle cx="0" cy="0" r="30" fill="#FDE68A" stroke="#C89B53" stroke-width="3"/>
    <line x1="0" y1="-45" x2="0" y2="-60" stroke="#C89B53" stroke-width="4" stroke-linecap="round"/>
    <line x1="0" y1="45" x2="0" y2="60" stroke="#C89B53" stroke-width="4" stroke-linecap="round"/>
    <line x1="-45" y1="0" x2="-60" y2="0" stroke="#C89B53" stroke-width="4" stroke-linecap="round"/>
    <line x1="45" y1="0" x2="60" y2="0" stroke="#C89B53" stroke-width="4" stroke-linecap="round"/>
    <line x1="32" y1="-32" x2="42" y2="-42" stroke="#C89B53" stroke-width="4" stroke-linecap="round"/>
    <line x1="-32" y1="32" x2="-42" y2="42" stroke="#C89B53" stroke-width="4" stroke-linecap="round"/>
    <line x1="-32" y1="-32" x2="-42" y2="-42" stroke="#C89B53" stroke-width="4" stroke-linecap="round"/>
    <line x1="32" y1="32" x2="42" y2="42" stroke="#C89B53" stroke-width="4" stroke-linecap="round"/>
    <!-- senyum matahari -->
    <path d="M -12 5 Q 0 15 12 5" stroke="#C89B53" stroke-width="3" stroke-linecap="round"/>
    <circle cx="-12" cy="-5" r="3.5" fill="#C89B53"/>
    <circle cx="12" cy="-5" r="3.5" fill="#C89B53"/>
  </g>

  <!-- 🌈 Pelangi & Awan -->
  <g transform="translate(750, 250)">
    <path d="M -80 0 A 80 80 0 0 1 80 0" stroke="#FDE68A" stroke-width="12" fill="none" stroke-linecap="round"/>
    <path d="M -64 0 A 64 64 0 0 1 64 0" stroke="#A7F3D0" stroke-width="12" fill="none" stroke-linecap="round"/>
    <path d="M -48 0 A 48 48 0 0 1 48 0" stroke="#FECACA" stroke-width="12" fill="none" stroke-linecap="round"/>
    <path d="M -32 0 A 32 32 0 0 1 32 0" stroke="#BFDBFE" stroke-width="12" fill="none" stroke-linecap="round"/>
    <!-- Awan -->
    <path d="M -90 0 Q -90 -20 -70 -20 Q -60 -35 -40 -20 Q -20 -15 -30 5 Q -90 10 -90 0 Z" fill="#FFFFFF" stroke="#4A7C7A" stroke-width="3"/>
    <path d="M 90 0 Q 90 -20 70 -20 Q 60 -35 40 -20 Q 20 -15 30 5 Q 90 10 90 0 Z" fill="#FFFFFF" stroke="#4A7C7A" stroke-width="3"/>
  </g>

  <!-- 🌙 Bulan Sabit (Islami) -->
  <path d="M 600 80 Q 560 110 580 150 Q 540 120 540 85 Q 540 50 600 80 Z" fill="#FDE68A" stroke="#C89B53" stroke-width="3" stroke-linejoin="round"/>
  <path d="M 250 820 Q 210 850 230 890 Q 190 860 190 825 Q 190 790 250 820 Z" fill="#FDE68A" stroke="#C89B53" stroke-width="3" stroke-linejoin="round"/>

  <!-- ⭐ Bintang kuning isi -->
  <g fill="#FDE68A" stroke="#C89B53" stroke-width="2.5" stroke-linejoin="round">
    <polygon points="400,150 405,165 420,165 408,175 412,190 400,180 388,190 392,175 380,165 395,165" />
    <polygon points="900,100 903,110 915,110 906,117 909,128 900,120 891,128 894,117 885,110 897,110" />
    <polygon points="120,600 123,610 135,610 126,617 129,628 120,620 111,628 114,617 105,610 117,610" />
    <polygon points="800,800 804,814 819,814 807,824 811,839 799,829 787,839 791,824 779,814 794,814" />
    <polygon points="500,450 503,460 515,460 506,467 509,478 500,470 491,478 494,467 485,460 497,460" />
  </g>
  
  <!-- 📖 Buku (Quran) -->
  <g transform="translate(800, 500)">
    <rect x="-25" y="-30" width="50" height="60" rx="5" fill="#A7F3D0" stroke="#4A7C7A" stroke-width="3"/>
    <rect x="-18" y="-22" width="36" height="44" rx="3" fill="#FFFFFF" stroke="#4A7C7A" stroke-width="2"/>
    <line x1="-10" y1="-10" x2="10" y2="-10" stroke="#4A7C7A" stroke-width="2.5" stroke-linecap="round"/>
    <line x1="-10" y1="0" x2="10" y2="0" stroke="#4A7C7A" stroke-width="2.5" stroke-linecap="round"/>
    <line x1="-10" y1="10" x2="5" y2="10" stroke="#4A7C7A" stroke-width="2.5" stroke-linecap="round"/>
    <path d="M -5 -30 L -5 0" stroke="#C89B53" stroke-width="5"/> <!-- penanda buku -->
  </g>

  <!-- ✈ Pesawat kertas -->
  <g transform="translate(450, 350)">
    <path d="M -40 -30 L 40 10 L -10 30 Z" fill="#FFFFFF" stroke="#4A7C7A" stroke-width="3" stroke-linejoin="round"/>
    <path d="M -40 -30 L 0 20" stroke="#4A7C7A" stroke-width="2.5" stroke-linecap="round"/>
    <path d="M 50 15 Q 45 13 40 10" stroke="#4A7C7A" stroke-width="2" stroke-linecap="round"/>
    <path d="M 58 22 Q 53 20 48 17" stroke="#4A7C7A" stroke-width="2" stroke-linecap="round"/>
  </g>

  <!-- 🌸 Bunga diisi warna -->
  <g transform="translate(250, 450)">
    <circle cx="0" cy="-15" r="13" fill="#FECACA" stroke="#F87171" stroke-width="2.5"/>
    <circle cx="14" cy="-5" r="13" fill="#FECACA" stroke="#F87171" stroke-width="2.5"/>
    <circle cx="9" cy="11" r="13" fill="#FECACA" stroke="#F87171" stroke-width="2.5"/>
    <circle cx="-9" cy="11" r="13" fill="#FECACA" stroke="#F87171" stroke-width="2.5"/>
    <circle cx="-14" cy="-5" r="13" fill="#FECACA" stroke="#F87171" stroke-width="2.5"/>
    <circle cx="0" cy="0" r="8" fill="#FDE68A" stroke="#C89B53" stroke-width="2.5"/>
  </g>

  <g transform="translate(680, 850)">
    <circle cx="0" cy="-15" r="13" fill="#BFDBFE" stroke="#60A5FA" stroke-width="2.5"/>
    <circle cx="14" cy="-5" r="13" fill="#BFDBFE" stroke="#60A5FA" stroke-width="2.5"/>
    <circle cx="9" cy="11" r="13" fill="#BFDBFE" stroke="#60A5FA" stroke-width="2.5"/>
    <circle cx="-9" cy="11" r="13" fill="#BFDBFE" stroke="#60A5FA" stroke-width="2.5"/>
    <circle cx="-14" cy="-5" r="13" fill="#BFDBFE" stroke="#60A5FA" stroke-width="2.5"/>
    <circle cx="0" cy="0" r="8" fill="#FDE68A" stroke="#C89B53" stroke-width="2.5"/>
  </g>

  <!-- ❤ Hati Merah muda -->
  <g fill="#FECACA" stroke="#F87171" stroke-width="2.5">
    <path d="M 600 400 Q 600 385 615 385 Q 630 385 630 400 Q 630 415 600 435 Q 570 415 570 400 Q 570 385 585 385 Q 600 385 600 400 Z" />
    <path d="M 150 300 Q 150 290 160 290 Q 170 290 170 300 Q 170 310 150 325 Q 130 310 130 300 Q 130 290 140 290 Q 150 290 150 300 Z" />
  </g>

  <!-- 🎈 Balon -->
  <g transform="translate(850, 700)">
    <ellipse cx="0" cy="0" rx="25" ry="32" fill="#BFDBFE" stroke="#60A5FA" stroke-width="3"/>
    <path d="M 0 32 Q -5 50 10 65" stroke="#60A5FA" stroke-width="2.5" stroke-linecap="round" fill="none"/>
  </g>
  <g transform="translate(300, 200)">
    <ellipse cx="0" cy="0" rx="20" ry="26" fill="#FDE68A" stroke="#C89B53" stroke-width="3"/>
    <path d="M 0 26 Q -4 40 8 50" stroke="#C89B53" stroke-width="2.5" stroke-linecap="round" fill="none"/>
  </g>

  <!-- 👦 Anak Laki-laki Muslim (pake peci) -->
  <g transform="translate(350, 650)">
    <!-- Tangan/Lengan -->
    <path d="M -22 65 Q -45 55 -50 35" stroke="#A7F3D0" stroke-width="9" stroke-linecap="round" fill="none"/>
    <path d="M -22 65 Q -45 55 -50 35" stroke="#4A7C7A" stroke-width="3" stroke-linecap="round" fill="none"/>
    <path d="M 22 65 Q 45 55 50 35" stroke="#A7F3D0" stroke-width="9" stroke-linecap="round" fill="none"/>
    <path d="M 22 65 Q 45 55 50 35" stroke="#4A7C7A" stroke-width="3" stroke-linecap="round" fill="none"/>
    
    <!-- Badan -->
    <rect x="-24" y="55" width="48" height="55" rx="10" fill="#A7F3D0" stroke="#4A7C7A" stroke-width="3"/>
    
    <!-- Kaki -->
    <path d="M -10 110 Q -15 130 -12 145" stroke="#172E40" stroke-width="6" stroke-linecap="round" fill="none"/>
    <path d="M 10 110 Q 15 130 12 145" stroke="#172E40" stroke-width="6" stroke-linecap="round" fill="none"/>

    <!-- Kepala -->
    <circle cx="0" cy="35" r="30" fill="#FFE4E6" stroke="#172E40" stroke-width="3"/>
    <!-- Peci hitam -->
    <path d="M -26 22 Q -20 0 0 0 Q 20 0 26 22 Z" fill="#172E40" stroke="#172E40" stroke-width="3"/>
    
    <!-- Wajah senyum -->
    <path d="M -10 42 Q 0 55 10 42" stroke="#172E40" stroke-width="3" stroke-linecap="round" fill="none"/>
    <circle cx="-10" cy="32" r="3.5" fill="#172E40"/>
    <circle cx="10" cy="32" r="3.5" fill="#172E40"/>
    <circle cx="-16" cy="38" r="4" fill="#FECACA" opacity="0.9"/>
    <circle cx="16" cy="38" r="4" fill="#FECACA" opacity="0.9"/>
  </g>

  <!-- 👧 Anak Perempuan Muslimah (berjilbab) -->
  <g transform="translate(680, 280)">
    <!-- Tangan/Lengan -->
    <path d="M -26 75 Q -45 60 -50 40" stroke="#FECACA" stroke-width="9" stroke-linecap="round" fill="none"/>
    <path d="M -26 75 Q -45 60 -50 40" stroke="#F87171" stroke-width="3" stroke-linecap="round" fill="none"/>
    <path d="M 26 75 Q 45 60 50 40" stroke="#FECACA" stroke-width="9" stroke-linecap="round" fill="none"/>
    <path d="M 26 75 Q 45 60 50 40" stroke="#F87171" stroke-width="3" stroke-linecap="round" fill="none"/>
    
    <!-- Badan -->
    <path d="M -26 60 Q -32 75 -28 115 Q 0 125 28 115 Q 32 75 26 60 Z" fill="#FECACA" stroke="#F87171" stroke-width="3"/>
    
    <!-- Kaki -->
    <path d="M -10 115 Q -15 135 -12 150" stroke="#172E40" stroke-width="6" stroke-linecap="round" fill="none"/>
    <path d="M 10 115 Q 15 135 12 150" stroke="#172E40" stroke-width="6" stroke-linecap="round" fill="none"/>

    <!-- Wajah belakang (agar jilbab di depan) -->
    <circle cx="0" cy="35" r="28" fill="#FFE4E6" stroke="#172E40" stroke-width="3"/>
    
    <!-- Jilbab biru -->
    <path d="M -28 28 Q -30 5 0 5 Q 30 5 28 28 Q 30 55 28 70 Q 0 75 -28 70 Q -30 55 -28 28 Z" fill="#BFDBFE" stroke="#60A5FA" stroke-width="3"/>
    
    <!-- Wajah lubang jilbab (wajah dalam) -->
    <circle cx="0" cy="35" r="22" fill="#FFE4E6" stroke="none"/>
    
    <!-- Wajah senyum -->
    <path d="M -10 42 Q 0 55 10 42" stroke="#172E40" stroke-width="3" stroke-linecap="round" fill="none"/>
    <circle cx="-10" cy="32" r="3.5" fill="#172E40"/>
    <circle cx="10" cy="32" r="3.5" fill="#172E40"/>
    <circle cx="-14" cy="38" r="4" fill="#F87171" opacity="0.7"/>
    <circle cx="14" cy="38" r="4" fill="#F87171" opacity="0.7"/>
  </g>

</svg>
